<?xml version="1.0" encoding="utf-8"?>
<!DOCTYPE svg PUBLIC "-//W3C//DTD SVG 1.1//EN" "http://www.w3.org/Graphics/SVG/1.1/DTD/svg11.dtd">
<svg version="1.1" id="Layer_1" xmlns="http://www.w3.org/2000/svg" xmlns:xlink="http://www.w3.org/1999/xlink" x="0px" y="0px"
	 width="58.916px" height="65.521px" viewBox="0 0 58.916 65.521" enable-background="new 0 0 58.916 65.521" xml:space="preserve">
<g id="Plan_x0020_1_1_">
	<path d="M10.784,39.329l13.138-13.137c0.479-0.48,0.848-1.045,1.101-1.61c0.255-0.621,0.366-1.271,0.366-1.92
		c0-0.678-0.111-1.328-0.366-1.921l0,0c-0.253-0.594-0.622-1.159-1.101-1.639c-0.479-0.479-1.019-0.848-1.613-1.073l0,0
		c-0.619-0.254-1.27-0.395-1.92-0.395l0,0c-0.648,0-1.299,0.141-1.92,0.395l0,0c-0.592,0.226-1.13,0.594-1.638,1.073L5.077,30.882
		l-1.355,1.356l-2.514-2.515l13.136-13.107c0.819-0.82,1.751-1.441,2.769-1.865l0,0c1.046-0.424,2.148-0.65,3.276-0.65l0,0
		c1.102,0,2.231,0.226,3.279,0.65c1.016,0.424,1.949,1.045,2.769,1.865c0.818,0.818,1.438,1.751,1.863,2.768h-0.029
		c0.451,1.045,0.68,2.146,0.68,3.277c0,0.311-0.029,0.649-0.057,0.96l-0.029,0.142h0.141l0,0c0.339-0.057,0.651-0.085,0.962-0.085
		c2.202,0,4.378,0.848,6.044,2.514c0.819,0.819,1.441,1.752,1.864,2.769c0.426,1.045,0.65,2.175,0.65,3.277s-0.225,2.233-0.65,3.277
		c-0.423,1.017-1.045,1.949-1.864,2.769L22.902,51.421l-2.514-2.517l1.358-1.355l11.779-11.752c0.479-0.48,0.848-1.044,1.073-1.637
		l0,0c0.254-0.594,0.396-1.272,0.396-1.922l0,0c0-0.649-0.143-1.299-0.396-1.921l0,0c-0.226-0.593-0.594-1.129-1.073-1.61
		s-1.044-0.848-1.638-1.102l0,0c-0.594-0.253-1.242-0.367-1.921-0.367c-0.651,0-1.299,0.113-1.921,0.367l0,0
		c-0.566,0.254-1.13,0.622-1.61,1.102L13.299,41.843L10.784,39.329z"/>
	<path d="M29.967,39.329l13.137-13.137c0.479-0.48,0.848-1.045,1.102-1.61c0.254-0.621,0.365-1.271,0.365-1.92
		c0-0.678-0.111-1.328-0.365-1.921l0,0c-0.254-0.594-0.622-1.159-1.102-1.639c-0.481-0.479-1.019-0.848-1.612-1.073l0,0
		c-0.62-0.254-1.27-0.395-1.921-0.395l0,0c-0.647,0-1.299,0.141-1.921,0.395l0,0c-0.594,0.226-1.158,0.594-1.639,1.073
		L24.258,30.882l-1.356,1.356l-2.514-2.515l13.137-13.107c0.819-0.82,1.752-1.441,2.769-1.865l0,0
		c1.045-0.424,2.146-0.65,3.276-0.65l0,0c1.102,0,2.231,0.226,3.276,0.65c1.019,0.424,1.949,1.045,2.77,1.865
		c0.821,0.818,1.439,1.751,1.865,2.768h-0.028c0.451,1.045,0.679,2.146,0.679,3.277c0,0.311-0.027,0.649-0.085,0.96v0.142h0.14l0,0
		c0.34-0.057,0.65-0.085,0.962-0.085c2.203,0,4.378,0.848,6.045,2.514c0.819,0.819,1.441,1.752,1.864,2.769
		c0.425,1.045,0.65,2.175,0.65,3.277s-0.226,2.233-0.65,3.277c-0.423,1.017-1.045,1.949-1.864,2.769L42.085,51.421l-2.515-2.517
		l1.355-1.355l11.782-11.752c0.479-0.48,0.848-1.044,1.072-1.637l0,0c0.255-0.594,0.397-1.272,0.397-1.922l0,0
		c0-0.649-0.143-1.299-0.397-1.921l0,0c-0.225-0.593-0.593-1.129-1.072-1.61c-0.48-0.48-1.045-0.848-1.639-1.102l0,0
		c-0.594-0.253-1.244-0.367-1.921-0.367c-0.651,0-1.301,0.113-1.921,0.367l0,0c-0.564,0.254-1.131,0.622-1.611,1.102L32.481,41.843
		L29.967,39.329z"/>
</g>
</svg>
