<svg xmlns="http://www.w3.org/2000/svg" width="400" height="200" viewBox="0 0 400 200"><path fill="#95CB70" d="M133.98 143.42c-8.6.97-15.77-3.7-17.44-11.35-5.57-19.28-3.06-38.63-2.95-39.44v-.1c1.2-6.44 5.6-13.3 12.9-14.1 8-.9 15.3 4.83 16.2 12.78.1.8.1 1.6 0 2.5l-.1.2c-1.6 11.4 2.3 21.9 3.6 24.9.8 1.7 1.5 4.1 1.8 6.3 1 9.1-5.5 17.5-14.2 18.5z"/><path fill="#4D8239" d="M133.87 145.6c-9.4 1.05-17.22-4.04-19.06-12.4-6-21.07-3.3-42.2-3.2-43.1V90c1.4-7.04 6.2-14.54 14.1-15.42 8.8-1 16.8 5.28 17.8 13.98.1.82.1 1.7.1 2.65v.2c-1.7 12.5 2.5 23.9 3.9 27.2 1 1.8 1.7 4.5 2 6.9 1.1 9.9-6 19.2-15.5 20.2zm-18.4-54.93c-.16 1.13-2.62 21.7 3.1 41.5l.05.14c1.37 6.4 7.46 10.3 14.8 9.5 7.42-.8 12.94-8.1 12.07-15.9-.3-1.9-.9-4.2-1.6-5.5l-.1-.1c-1.5-3.4-6.1-15.7-4.3-29.2 0-.7 0-1.3-.1-1.9-.8-6.5-6.8-11.2-13.5-10.5-5.9.7-9.7 6.8-10.7 12.2z"/><ellipse transform="rotate(-58.34 124.54 115.322)" fill="#C7E3B4" cx="124.55" cy="115.33" rx="2.14" ry="2.81"/><path fill="#4D8239" d="M125.4 119.16c-1.64.2-2.94-.16-3.87-1.02-1.8-1.68-1.36-4.6-1.34-4.74 0-.53.5-.9 1.1-.8.5.08.9.58.8 1.1-.1.57-.1 2.2.7 3 .6.6 1.7.72 3.2.37.5-.13 1 .2 1.1.73.1.52-.2 1.05-.8 1.17-.4.1-.8.16-1.2.2z"/><path fill="#C7E3B4" d="M140.1 120.24c-.63 1-2.2 1.16-3.52.35-1.32-.9-1.9-2.3-1.27-3.3.7-1 2.2-1.2 3.6-.4 1.4.8 1.9 2.3 1.3 3.3z"/><path fill="#4D8239" d="M138.56 122.6c-1.65.2-2.95-.16-3.88-1.03-1.8-1.67-1.35-4.6-1.33-4.73.08-.53.58-.9 1.1-.8.55.08.9.58.82 1.1-.08.58-.12 2.22.75 3 .63.6 1.72.72 3.23.37.52-.1 1.05.2 1.17.8.13.5-.2 1.1-.72 1.2-.4.1-.78.2-1.14.2z"/><ellipse transform="rotate(-58.303 132.31 105.62)" fill="#C7E3B4" cx="132.31" cy="105.62" rx="2.13" ry="2.81"/><path fill="#4D8239" d="M133.16 109.46c-1.65.18-2.95-.16-3.88-1.03-1.8-1.68-1.35-4.6-1.33-4.73.08-.53.58-.9 1.1-.8.54.07.9.57.82 1.1-.08.56-.12 2.2.75 3 .63.6 1.72.7 3.23.35.52-.12 1.05.2 1.17.74.13.5-.2 1-.73 1.1-.4.1-.8.1-1.2.2z"/><ellipse transform="rotate(-58.345 126.157 94.52)" fill="#C7E3B4" cx="126.15" cy="94.52" rx="2.14" ry="2.81"/><path fill="#4D8239" d="M127 98.36c-1.64.18-2.94-.17-3.87-1.04-1.8-1.67-1.36-4.6-1.34-4.72 0-.53.5-.9 1.1-.8.5.07.9.57.8 1.1-.1.57-.1 2.2.7 3 .6.6 1.7.7 3.2.36.5-.12 1 .2 1.1.73.1.5-.2 1-.8 1.1-.4.1-.8.1-1.2.2z"/><path fill="#C7E3B4" d="M132.66 132.85c-.62 1-2.2 1.16-3.5.35-1.33-.8-1.9-2.3-1.28-3.3.62-1 2.2-1.15 3.5-.33 1.33.8 1.9 2.3 1.28 3.3z"/><path fill="#4D8239" d="M131.13 135.22c-1.64.2-2.95-.16-3.88-1.03-1.8-1.7-1.35-4.6-1.33-4.8.08-.6.58-.9 1.12-.8.53.1.9.6.8 1.1-.08.6-.1 2.2.75 3 .6.6 1.7.7 3.2.3.5-.1 1 .2 1.1.7.1.5-.2 1-.8 1.2-.4.1-.8.1-1.2.2z"/><ellipse transform="rotate(-67.76 131.922 84.36)" fill="#C7E3B4" cx="131.93" cy="84.36" rx="2.97" ry="4.89"/><ellipse transform="rotate(-85.01 143.686 95.986)" fill="#4D8239" cx="143.68" cy="95.99" rx="3" ry="1.65"/><ellipse transform="rotate(83.598 113.253 87.016)" fill="#4D8239" cx="113.26" cy="87.02" rx="2.77" ry="1.97"/><ellipse transform="rotate(83.604 111.486 113.298)" fill="#4D8239" cx="111.49" cy="113.3" rx="2.92" ry="1.52"/><path fill="#4D8239" d="M150.05 121.58c.16 1.46-.48 2.74-1.43 2.85-.96.1-1.86-1-2.03-2.47-.2-1.46.4-2.74 1.4-2.84.9-.1 1.8 1 2 2.46z"/><ellipse transform="rotate(83.62 117.36 137.88)" fill="#4D8239" cx="117.36" cy="137.88" rx="2.61" ry="1.59"/><path fill="#4D8239" d="M125.08 76.16s1.98-8.93 7.8-8.85l2.96.8s-6.35.4-3.84 8.2l-6.92-.1zm18.43 65.52c.4.83-.7 2.2-2.5 3.05-1.8.85-3.6.87-4 .04-.4-.84.8-2.2 2.6-3.06 1.9-.8 3.6-.8 4 0z"/><path d="M45.52 133.35v-67.4c0-2.1.75-3.92 2.24-5.4 1.5-1.5 3.32-2.26 5.48-2.26H78.6c8.22 0 14.92 2.3 20.1 6.9 5.2 4.6 7.8 11.4 7.8 20.3 0 8.8-2.6 15.6-7.76 20.3-5.16 4.6-11.87 7-20.13 7H60.9v20.4c0 2.1-.73 4-2.2 5.4-1.47 1.4-3.3 2.2-5.45 2.2-2.17 0-4-.8-5.5-2.3-1.48-1.5-2.23-3.3-2.23-5.5zm15.4-34.28h16.5c4.14 0 7.37-1.18 9.7-3.54 2.3-2.36 3.47-5.68 3.47-9.97 0-4.32-1.2-7.65-3.6-9.96-2.4-2.32-5.6-3.48-9.7-3.48H60.9v26.95zm97.64 33.33c-5.04-5.34-7.56-13.35-7.56-24.02 0-10.66 2.5-18.65 7.53-23.95 5.02-5.3 12.16-7.96 21.43-7.96 3.72 0 7.2.6 10.45 1.76 3.3 1.17 5.7 2.37 7.3 3.6 1.6 1.25 2.9 2.5 4 3.8 1 1.4 1.5 2.76 1.5 4.1 0 1.78-.6 3.3-1.8 4.55-1.2 1.26-2.7 1.88-4.5 1.88-1.9 0-3.5-.75-4.9-2.27-3.2-3.5-7.1-5.2-11.8-5.2-4.6 0-8.2 1.7-10.6 5.1-2.4 3.4-3.7 8.3-3.7 14.5 0 6.4 1.3 11.3 3.7 14.7 2.5 3.4 6 5.1 10.7 5.1 1.9 0 3.7-.3 5.6-1 1.86-.7 3.2-1.3 4.1-1.9.9-.6 2.08-1.4 3.55-2.5 1.23-.9 2.55-1.3 3.94-1.3 1.75 0 3.3.6 4.5 1.8 1.23 1.2 1.84 2.7 1.84 4.5 0 1.9-.72 3.5-2.24 4.9-2.1 1.9-4.9 3.6-8.57 5.2-3.64 1.6-7.86 2.4-12.67 2.4-9.25 0-16.4-2.7-21.4-8.1zm54.58.43V65.18c0-2 .68-3.64 2.04-4.93 1.37-1.3 3.07-1.95 5.1-1.95 2 0 3.7.66 5.1 1.98 1.4 1.32 2.1 2.95 2.1 4.9v32.65l24.1-18.9c1.53-1.12 3.06-1.7 4.62-1.7 1.9 0 3.54.7 4.9 2.03 1.38 1.34 2.06 2.96 2.06 4.87 0 2.34-.88 4.16-2.66 5.45l-17.46 13.32 19.55 25.64c.9 1.44 1.4 2.86 1.4 4.3 0 1.9-.7 3.52-2 4.86-1.4 1.35-3 2.02-4.9 2.02-2.4 0-4.3-.93-5.6-2.8l-19.9-26.54-4.2 3.3v19.17c0 1.95-.7 3.6-2.1 4.9-1.5 1.33-3.2 2-5.1 2-2.1 0-3.8-.66-5.1-1.96-1.4-1.3-2.1-3-2.1-5zm60.2-10.13V65.44c0-2 .68-3.68 2.07-5.06 1.4-1.4 3.1-2.08 5.1-2.08 2 0 3.7.7 5.1 2.08 1.4 1.4 2.1 3.1 2.1 5.08v58.86c0 .74.3 1.32.9 1.76.6.43 1.2.65 1.7.65 1.9 0 3.4.62 4.7 1.88 1.3 1.3 1.9 2.8 1.9 4.7s-.6 3.4-1.9 4.6c-1.3 1.3-2.8 1.9-4.7 1.9-5.3 0-9.4-1.4-12.4-4.4-3-2.9-4.5-7.1-4.5-12.6zm28.9-14.7c0-10.06 2.5-17.83 7.55-23.3 5-5.5 12-8.23 21.1-8.23 4.3 0 8.1.64 11.4 1.9 3.3 1.27 5.9 2.82 7.7 4.66 1.8 1.85 3.4 4 4.5 6.5 1.2 2.5 1.9 4.78 2.3 6.88.4 2.2.6 4.2.6 6.3 0 1.4-.1 2.5-.1 3.2s-.2 1.7-.5 2.9-.7 2.1-1.2 2.7c-.5.6-1.3 1.2-2.4 1.6-1.1.5-2.4.7-4 .7h-32.9c0 4.6 1.4 8.1 4.3 10.4 2.8 2.4 6.6 3.6 11.2 3.6 4.7 0 9.1-1.4 13.2-4.2 1.5-1 3-1.4 4.3-1.4 1.8 0 3.22.6 4.5 1.87 1.2 1.2 1.8 2.7 1.8 4.44 0 1.97-.8 3.6-2.3 4.98-1.08 1-2.3 2-3.9 3-1.5.97-3.9 1.95-7.2 2.95-3.26 1-6.7 1.5-10.4 1.5-9.56 0-16.9-2.7-22.1-8.1-5.2-5.37-7.8-13.5-7.8-24.4zm14.73-6.66h26.36c0-3.52-1.05-6.5-3.16-8.97-2.1-2.47-5.17-3.7-9.2-3.7-4 0-7.25 1.1-9.77 3.28-2.52 2.2-3.93 5.3-4.24 9.4z"/></svg>