<svg xmlns="http://www.w3.org/2000/svg" xmlns:xlink="http://www.w3.org/1999/xlink" viewBox="0 0 450 506.69"><defs><path id="a" d="M507.07 584.04V17.14H-59.86v566.9"/></defs><clipPath id="b"><use xlink:href="#a" overflow="visible"/></clipPath><g clip-path="url(#b)"><defs><path id="c" d="M-59.86 584.04V17.14h566.93v566.9"/></defs><clipPath id="d"><use xlink:href="#c" overflow="visible"/></clipPath><path fill="#272425" d="M383.15 221.8c0 88.06-71.38 159.45-159.45 159.45-88.06 0-159.45-71.4-159.45-159.45S135.65 62.35 223.7 62.35c88.07 0 159.45 71.4 159.45 159.45" clip-path="url(#d)"/></g><g clip-path="url(#b)"><defs><path id="e" d="M175.36 53.72l-66.08 38.4-33.82 35.08-27.52 60.27 15.4 96.5c130.37 0 235.18-99.92 235.18-232.1l-123.16 1.85z"/></defs><clipPath id="g"><use xlink:href="#e" overflow="visible"/></clipPath><radialGradient id="f" cx="-59.86" cy="584.04" r="1" gradientTransform="matrix(193.85 0 0 -193.85 11685.09 113300.13)" gradientUnits="userSpaceOnUse"><stop offset="0" stop-color="#272425"/><stop offset=".02" stop-color="#272425"/><stop offset=".38" stop-color="#282626"/><stop offset=".66" stop-color="#2C2A2B"/><stop offset=".91" stop-color="#333132"/><stop offset="1" stop-color="#363535"/></radialGradient><path fill="url(#f)" d="M47.94 51.88H298.5v232.08H47.95z" clip-path="url(#g)"/></g><g clip-path="url(#b)"><defs><path id="h" d="M-59.86 584.04V17.14h566.93v566.9"/></defs><clipPath id="i"><use xlink:href="#h" overflow="visible"/></clipPath><path fill="#97B86B" d="M120 92.25s-16.5 207.5 155.52 245.03c0 0-8.06 27.5-50.1 42.58l-35.75 9.95-86.04-43.7c-2.97-1.5-46.73-89-46.73-92 0-2.9-4.45-57.4-4.45-57.4s12.6-48.6 14.83-51.6c2.23-2.9 17.8-40.8 17.8-40.8l34.92-12z" clip-path="url(#i)"/><path fill="#84C2DE" d="M330.88 342.2s16.5-207.5-155.52-245.02c0 0 8.06-27.52 50.1-42.58l35.75-9.95s83.1 42.27 86.1 43.76c3 1.5 46.8 89.1 46.8 92s4.5 57.5 4.5 57.5-12.6 48.6-14.8 51.6c-2.2 3-17.8 40.8-17.8 40.8l-34.9 12z" clip-path="url(#i)"/></g><g clip-path="url(#b)"><defs><path id="j" d="M175.36 96.68c60.74 17.24 73.52 34.2 73.52 34.2s43.45 33.22 68.57 100.2c25.12 67 6.75 112.58 13.66 106.87 7-5.7 56.6-51.5 55.4-121.6-1.2-70.12-43.7-110.1-43.7-110.1C304.6 84.73 271.5 78 245.1 78c-44.04 0-69.7 18.7-69.7 18.7"/></defs><clipPath id="l"><use xlink:href="#j" overflow="visible"/></clipPath><defs><filter id="k" width="438.48" height="446.4" x="62.39" y="-12.29" filterUnits="userSpaceOnUse"><feColorMatrix values="1 0 0 0 0 0 1 0 0 0 0 0 1 0 0 0 0 0 1 0"/></filter></defs><mask id="o" width="438.48" height="446.4" x="62.39" y="-12.29" maskUnits="userSpaceOnUse"><g filter="url(#k)"><defs><path id="m" d="M500.67 280.7l-275 153.24-163.27-293 275-153.24z"/></defs><clipPath id="n" clip-path="url(#l)"><use xlink:href="#m" overflow="visible"/></clipPath><g clip-path="url(#n)"><image width="1827" height="1860" overflow="visible" xlink:href="8EA5748069B4C794.jpg" transform="matrix(.24 0 0 .24 62.39 -12.29)"/></g></g></mask><g clip-path="url(#l)" mask="url(#o)"><defs><path id="p" d="M500.67 280.7l-275 153.24-163.27-293 275-153.24z"/></defs><clipPath id="q"><use xlink:href="#p" overflow="visible"/></clipPath><g clip-path="url(#q)"><image width="1827" height="1860" overflow="visible" xlink:href="8EA5748069B4C79C.jpg" transform="matrix(.24 0 0 .24 62.39 -12.29)"/></g></g></g><g clip-path="url(#b)"><defs><path id="r" d="M231.86 55.03c-3.63.15-6.43.27-8.54.34-34.95 10.72-47.96 41.3-47.96 41.3s68.3-46.76 166.83 8.7l-12.8-13.24s-26.8-19.07-42.6-24.93C274 62.5 261.1 55 237 55c-1.67 0-3.4.03-5.18.1m-8.54.35l1.7-.5s-15.65 1-1.7.5"/></defs><clipPath id="t"><use xlink:href="#r" overflow="visible"/></clipPath><defs><filter id="s" width="174.96" height="79.92" x="171.32" y="37.77" filterUnits="userSpaceOnUse"><feColorMatrix values="1 0 0 0 0 0 1 0 0 0 0 0 1 0 0 0 0 0 1 0"/></filter></defs><mask id="w" width="174.96" height="79.92" x="171.32" y="37.77" maskUnits="userSpaceOnUse"><g filter="url(#s)"><defs><path id="u" d="M176.24 37.77L346.2 50.22l-4.9 67.3-170-12.42z"/></defs><clipPath id="v" clip-path="url(#t)"><use xlink:href="#u" overflow="visible"/></clipPath><g clip-path="url(#v)"><image width="729" height="333" overflow="visible" xlink:href="8EA5748069B4C79F.jpg" transform="matrix(.24 0 0 .24 171.32 37.77)"/></g></g></mask><g clip-path="url(#t)" mask="url(#w)"><defs><path id="x" d="M176.24 37.77L346.2 50.22l-4.9 67.3-170-12.42z"/></defs><clipPath id="y"><use xlink:href="#x" overflow="visible"/></clipPath><g clip-path="url(#y)"><image width="729" height="333" overflow="visible" xlink:href="8EA5748069B4C796.jpg" transform="matrix(.24 0 0 .24 171.32 37.77)"/></g></g></g><g clip-path="url(#b)"><defs><path id="z" d="M118.7 97.88c-6.9 5.7-56.57 51.5-55.34 121.6 1.22 70.12 43.77 110.1 43.77 110.1 101.65 57.37 167.34 9.57 167.34 9.57-60.75-17.24-73.52-34.2-73.52-34.2s-43.45-33.22-68.57-100.2c-23.7-63.22-8.7-107.35-12.72-107.35-.24 0-.56.16-.95.48"/></defs><clipPath id="B"><use xlink:href="#z" overflow="visible"/></clipPath><defs><filter id="A" width="458.64" height="470.16" x="-61" y="7.1" filterUnits="userSpaceOnUse"><feColorMatrix values="1 0 0 0 0 0 1 0 0 0 0 0 1 0 0 0 0 0 1 0"/></filter></defs><mask id="E" width="458.64" height="470.16" x="-61" y="7.1" maskUnits="userSpaceOnUse"><g filter="url(#A)"><defs><path id="C" d="M-61 166.02L224.13 7.12l173.47 311.2-285.16 158.9z"/></defs><clipPath id="D" clip-path="url(#B)"><use xlink:href="#C" overflow="visible"/></clipPath><g clip-path="url(#D)"><image width="1911" height="1959" overflow="visible" xlink:href="8EA5748069B4C797.jpg" transform="matrix(.24 0 0 .24 -61 7.1)"/></g></g></mask><g clip-path="url(#B)" mask="url(#E)"><defs><path id="F" d="M-61 166.02L224.13 7.12l173.47 311.2-285.16 158.9z"/></defs><clipPath id="G"><use xlink:href="#F" overflow="visible"/></clipPath><g clip-path="url(#G)"><image width="1911" height="1959" overflow="visible" xlink:href="9DE9D68F4720D8B7.jpg" transform="matrix(.24 0 0 .24 -61 7.1)"/></g></g></g><g clip-path="url(#b)"><defs><path id="H" d="M226.5 380.46c-.55.17-1.1.34-1.67.5 0 0 9.95-.64 6.88-.64-.7 0-2.3.04-5.2.14M120.4 343.7s26.75 19.07 42.6 24.92c13.7 5.06 27.45 13.35 55.03 12.18l8.54-.34c34.96-10.7 47.98-41.3 47.98-41.3s-68.3 46.76-166.8-8.7l12.7 13.24z"/></defs><clipPath id="J"><use xlink:href="#H" overflow="visible"/></clipPath><defs><filter id="I" width="174.96" height="79.92" x="103.6" y="318.31" filterUnits="userSpaceOnUse"><feColorMatrix values="1 0 0 0 0 0 1 0 0 0 0 0 1 0 0 0 0 0 1 0"/></filter></defs><mask id="M" width="174.96" height="79.92" x="103.6" y="318.31" maskUnits="userSpaceOnUse"><g filter="url(#I)"><defs><path id="K" d="M273.6 398.07l-170-12.44 4.92-67.32 169.98 12.5z"/></defs><clipPath id="L" clip-path="url(#J)"><use xlink:href="#K" overflow="visible"/></clipPath><g clip-path="url(#L)"><image width="729" height="333" overflow="visible" xlink:href="9DE9D68F4720D8B2.jpg" transform="matrix(.24 0 0 .24 103.6 318.31)"/></g></g></mask><g clip-path="url(#J)" mask="url(#M)"><defs><path id="N" d="M273.6 398.07l-170-12.44 4.92-67.32 169.98 12.5z"/></defs><clipPath id="O"><use xlink:href="#N" overflow="visible"/></clipPath><g clip-path="url(#O)"><image width="729" height="333" overflow="visible" xlink:href="9DE9D68F4720D8AF.jpg" transform="matrix(.24 0 0 .24 103.6 318.31)"/></g></g></g><g clip-path="url(#b)"><defs><path id="P" d="M-59.86 584.04V17.14h566.93v566.9"/></defs><clipPath id="Q"><use xlink:href="#P" overflow="visible"/></clipPath><path fill="#5E7D4B" d="M127.48 92.73s-.1 1.14-.25 3.3c-.16 2.17-.3 5.46-.43 9.64-.2 8.4-.1 20.47 1.06 34.94.68 7.3 1.44 15.1 2.8 23.3 1.2 8.3 2.95 16.9 5.07 25.7 2.22 8.8 4.78 17.9 8.07 26.8 1.5 4.6 3.5 8.9 5.24 13.4 2.06 4.4 3.93 8.8 6.22 13.1 2.27 4.3 4.47 8.6 7.08 12.7 1.28 2.1 2.47 4.2 3.8 6.2l4.12 5.9c2.6 4 5.8 7.5 8.66 11.3 2.97 3.6 6.26 6.9 9.3 10.3 3.28 3.2 6.6 6.2 9.8 9.2l10.08 8.1 10.13 6.9c3.34 2.2 6.73 3.9 9.9 5.8 3.15 1.9 6.42 3.3 9.44 4.8 3.07 1.4 5.88 3 8.7 4 5.65 2.1 10.48 4.2 14.64 5.4L274 337l-13.2-3.03c-4.2-.95-9.2-2.76-15-4.5-2.9-.83-5.8-2.23-9-3.43-3.12-1.3-6.52-2.5-9.83-4.27-3.32-1.7-6.9-3.3-10.43-5.24-3.47-2.1-7.07-4.2-10.77-6.42l-10.87-7.6c-3.48-2.9-7.1-5.8-10.68-8.9-3.4-3.3-7-6.5-10.3-10.1-3.2-3.6-6.76-7.1-9.7-11.1l-4.7-5.9c-1.5-2-2.9-4.1-4.33-6.1-3-4.1-5.6-8.4-8.2-12.7-2.7-4.3-4.9-8.8-7.3-13.2-2.1-4.6-4.5-9-6.4-13.6-4-9.1-7.3-18.4-10.2-27.5-2.8-9-5.2-17.9-7-26.4-1.9-8.5-3.2-16.6-4.4-24.1-2.1-15-3-27.7-3.3-36.6-.2-4.43-.2-8-.2-10.4V92l19.2 1.2z" clip-path="url(#Q)"/><path fill="#2E6D99" d="M321.83 341.6l.26-3.28c.1-2.2.3-5.47.4-9.66.2-8.4.1-20.47-1.1-34.93-.7-7.22-1.5-15.05-2.8-23.26-1.3-8.23-3-16.83-5.1-25.65-2.2-8.8-4.8-17.83-8.1-26.77-1.5-4.54-3.5-8.9-5.3-13.4-2.1-4.34-4-8.83-6.2-13.1-2.3-4.26-4.5-8.58-7.1-12.64-1.3-2-2.5-4.1-3.8-6.1l-4.1-5.9c-2.6-4-5.8-7.5-8.7-11.2-3-3.6-6.3-6.9-9.4-10.3l-9.8-9.2-10.1-8-10.1-6.9c-3.4-2.1-6.8-3.9-10-5.7-3.1-1.9-6.4-3.3-9.4-4.7-3.1-1.3-5.9-2.9-8.7-3.9-5.7-2-10.5-4.1-14.7-5.3l-13-3.8 13.3 3c4.2 1 9.2 2.8 15 4.5 2.9.9 5.8 2.3 9 3.5 3.1 1.3 6.5 2.5 9.8 4.3 3.3 1.7 6.9 3.3 10.4 5.3l10.8 6.5 10.9 7.7c3.5 2.9 7.1 5.8 10.7 8.88 3.4 3.3 7 6.5 10.3 10.07 3.2 3.68 6.73 7.16 9.7 11.1l4.7 5.9c1.5 2 2.9 4.1 4.3 6.2 3 4.05 5.6 8.4 8.2 12.7 2.7 4.3 4.9 8.9 7.34 13.3 2.1 4.6 4.5 9.06 6.3 13.68 4 9.1 7.23 18.4 10.1 27.44 2.75 9.06 5.1 17.94 6.9 26.45 1.95 8.5 3.25 16.6 4.4 24.1 2.16 15.1 3 27.77 3.37 36.7.17 4.4.2 8 .2 10.4l-.03 3.8-19.3-1.2z" clip-path="url(#Q)"/></g><g clip-path="url(#b)"><defs><path id="R" d="M63.53 216.34c0-89.03 72.44-161.46 161.47-161.46s161.47 72.43 161.47 161.47c0 89.03-72.44 161.46-161.47 161.46S63.53 305.4 63.53 216.4m-23.5 0c0 102 82.97 184.98 184.97 184.98S409.97 318.4 409.97 216.4c0-102.02-82.97-185-184.97-185S40.03 114.37 40.03 216.36"/></defs><clipPath id="T"><use xlink:href="#R" overflow="visible"/></clipPath><linearGradient id="S" x1="-59.86" x2="-58.86" y1="584.04" y2="584.04" gradientUnits="userSpaceOnUse" gradientTransform="rotate(-162 6260.06 -109691.67) scale(369.98)"><stop offset="0" stop-color="#D4D6D7"/><stop offset=".13" stop-color="#BFC0C2"/><stop offset=".32" stop-color="#AAABAD"/><stop offset=".52" stop-color="#9C9EA0"/><stop offset=".73" stop-color="#949698"/><stop offset="1" stop-color="#929496"/></linearGradient><path fill="url(#S)" d="M374.65 510.05L-68.7 366 75.35-77.36 518.7 66.7" clip-path="url(#T)"/></g><g clip-path="url(#b)"><defs><path id="U" d="M62.38 216.34c0 89.8 72.8 162.63 162.62 162.63 89.8 0 162.62-72.82 162.62-162.63 0-89.8-72.8-162.62-162.62-162.62-89.8 0-162.62 72.8-162.62 162.62"/></defs><clipPath id="X"><use xlink:href="#U" overflow="visible"/></clipPath><defs><filter id="V" width="325.24" height="325.25" x="62.38" y="53.72" filterUnits="userSpaceOnUse"><feColorMatrix values="1 0 0 0 0 0 1 0 0 0 0 0 1 0 0 0 0 0 1 0"/></filter></defs><mask id="Z" width="325.24" height="325.25" x="62.38" y="53.72" maskUnits="userSpaceOnUse"><g filter="url(#V)"><radialGradient id="W" cx="-59.86" cy="584.04" r="1" gradientTransform="matrix(162.62 0 0 -162.62 9958.97 95194.63)" gradientUnits="userSpaceOnUse"><stop offset="0"/><stop offset=".88"/><stop offset=".89" stop-color="#0F0F0F"/><stop offset=".91" stop-color="#373737"/><stop offset=".94" stop-color="#767676"/><stop offset=".96" stop-color="#A6A6A6"/><stop offset=".96" stop-color="#AAA"/><stop offset=".97" stop-color="#C9C9C9"/><stop offset=".98" stop-color="#E0E0E0"/><stop offset=".99" stop-color="#EEE"/><stop offset="1" stop-color="#F2F2F2"/></radialGradient><path fill="url(#W)" d="M62.38 53.72h325.24v325.25H62.38z" clip-path="url(#X)"/></g></mask><radialGradient id="Y" cx="-59.86" cy="584.04" r="1" gradientTransform="matrix(162.62 0 0 -162.62 9958.97 95194.64)" gradientUnits="userSpaceOnUse"><stop offset="0" stop-color="#1A1717"/><stop offset=".88" stop-color="#1A1717"/><stop offset=".96" stop-color="#1A1717"/><stop offset="1" stop-color="#1A1717"/></radialGradient><path fill="url(#Y)" d="M62.38 53.72h325.24v325.25H62.38z" clip-path="url(#X)" mask="url(#Z)"/></g><g clip-path="url(#b)"><defs><path id="aa" d="M-59.86 584.04V17.14h566.93v566.9"/></defs><clipPath id="ab"><use xlink:href="#aa" overflow="visible"/></clipPath><path fill="#7AAB5D" d="M43.4 459.3v25.6h-8.65v-63.83h24.42c6.8 0 12.1 1.75 15.9 5.26 3.78 3.5 5.67 8.12 5.67 13.85 0 5.8-1.9 10.42-5.68 13.9-3.78 3.48-9.08 5.22-15.9 5.22H43.4zm0-6.76h15.77c4.33 0 7.56-1.16 9.7-3.48 2.12-2.32 3.2-5.25 3.2-8.8 0-3.53-1.08-6.48-3.23-8.85-2.15-2.3-5.37-3.5-9.67-3.5H43.4v24.7zm80.1 20.4h.25l20.38-51.87h10.75v63.83h-8.64v-47.83l-.26-.05-19.34 47.88h-6l-19.9-49.45-.27.04v49.4h-8.64V421h11.36m100.6 47.74c0-2.9-1.1-5.3-3.1-7.28-2.1-1.97-5.8-3.63-11-5-6.5-1.6-11.6-3.98-15.2-7.1-3.7-3.13-5.5-7.07-5.5-11.8 0-5 1.9-9.16 5.9-12.5s9-5 15.2-5c6.7 0 12.1 1.9 16 5.73 4 3.8 5.9 8.2 5.8 13.3l-.1.2h-8.3c0-3.6-1.3-6.6-3.8-9-2.5-2.4-5.8-3.6-9.7-3.6-4.1 0-7.2 1-9.3 2.9-2.2 1.9-3.3 4.5-3.3 7.6 0 2.8 1.2 5.1 3.5 6.9 2.3 1.8 6.1 3.5 11.4 4.9 6.4 1.6 11.3 4.1 14.7 7.3 3.3 3.2 5 7.2 5 12 0 5.1-2 9.3-6.1 12.4-4.1 3.1-9.3 4.7-15.9 4.7-6.2 0-11.6-1.7-16.3-5.2-4.7-3.5-7-8.1-6.9-13.9l.1-.3h8.23c0 4 1.55 7.1 4.6 9.2 3.02 2.2 6.45 3.3 10.3 3.3 4.1 0 7.3-.9 9.7-2.78 2.4-1.86 3.6-4.36 3.6-7.5m21.8-47.7h8.7v63.8h-8.64z" clip-path="url(#ab)"/><path fill="#272425" d="M287.75 462.5c0 7.1-1.6 12.76-4.82 16.98-3.2 4.23-7.64 6.34-13.28 6.34-3.3 0-6.2-.63-8.7-1.9-2.5-1.24-4.54-3.03-6.12-5.34v24.56h-5.26v-65.68h4.03l.97 7.4c1.58-2.62 3.62-4.66 6.14-6.1 2.6-1.45 5.5-2.17 8.9-2.17 5.7-.1 10.2 2.2 13.4 6.8 3.2 4.5 4.8 10.6 4.8 18.1v.9zm-5.26-.93c0-6.02-1.2-10.93-3.6-14.73-2.4-3.8-5.9-5.7-10.6-5.7-3.5 0-6.3.84-8.6 2.5-2.2 1.67-3.9 3.83-5 6.5v22.96c1.2 2.58 2.9 4.6 5.2 6.08 2.2 1.47 5 2.2 8.4 2.2 4.6 0 8.1-1.7 10.5-5.16s3.5-8.03 3.5-13.72v-.93zm22.9-37.7h-5.2v-7.36h5.2v7.4zm0 61.03h-5.2v-47.44h5.2v47.44zm15.2-68.4h5.2v68.4h-5.2zm16.7 43.98c0-7 1.9-12.7 5.7-17.2 3.8-4.46 8.9-6.7 15.2-6.7s11.4 2.24 15.2 6.7 5.7 10.2 5.7 17.2v1.45c0 7-1.9 12.75-5.8 17.2-3.8 4.46-8.9 6.7-15.2 6.7-6.4 0-11.5-2.24-15.3-6.7-3.8-4.45-5.8-10.2-5.8-17.2v-1.45zm5.2 1.45c0 5.5 1.4 10.1 4.1 13.85 2.8 3.74 6.6 5.6 11.6 5.6 4.9 0 8.7-1.86 11.5-5.6 2.8-3.74 4.2-8.36 4.2-13.85v-1.45c0-5.4-1.4-10-4.2-13.77-2.8-3.7-6.7-5.6-11.6-5.6-4.9 0-8.8 1.9-11.6 5.7-2.8 3.8-4.2 8.4-4.2 13.8v1.4zm55.8-36.6v12.13h10.4v4.3h-10.4v30.9c0 3.1.5 5.3 1.6 6.6s2.6 1.96 4.5 1.96c.6 0 1.2-.04 1.8-.1.6-.1 1.3-.2 2.1-.4l.8 3.92c-.7.35-1.6.63-2.7.85-1.1.2-2.1.3-3.1.3-3.3 0-5.9-1.1-7.8-3.2-1.9-2.1-2.8-5.5-2.8-10v-30.9h-8v-4.3h8.2v-12.1h5.3z" clip-path="url(#ab)"/></g></svg>