<?xml version="1.0" encoding="utf-8"?>

<svg
  xmlns="http://www.w3.org/2000/svg"
  xmlns:xlink="http://www.w3.org/1999/xlink"
  viewBox="0 0 1761 629"
  shape-rendering="geometricPrecision"
  fill-rule="evenodd"
  clip-rule="evenodd">
  <title>Hoa</title>
  <desc>Logo of the Hoa project (version 2)</desc>

  <style>
    .light { fill: #fa8a75 }
    .dark  { fill: #424a52 }
  </style>

  <defs>
    <path id="d" d="M155 126h194c16 0 29 13 29 29v67c0 16 13 30 29 30h67c16 0 30-14 30-30V29c0-16-14-29-30-29h-444c-16 0-29 13-29 29v193c0 16 13 30 29 30h67c16 0 29-14 29-30v-67c0-16 13-29 29-29z" />
    <use id="u" xlink:href="#d" transform="rotate(180 252 126)" />
  </defs>

  <use xlink:href="#u" x="0"    y="0"   class="dark"  />
  <use xlink:href="#d" x="0"    y="377" class="light" />
  <use xlink:href="#d" x="628"  y="0"   class="light" />
  <use xlink:href="#u" x="628"  y="377" class="dark"  />
  <use xlink:href="#d" x="1257" y="0"   class="dark"  />
  <use xlink:href="#d" x="1257" y="377" class="light" />
</svg>
